<svg id="Layer_1" data-name="Layer 1" xmlns="http://www.w3.org/2000/svg" viewBox="0 0 199.93 100"><defs><style>.cls-1{fill:#312782;}.cls-2{fill:#0080c8;}.cls-3{fill:#fff;}.cls-4{fill:none;}</style></defs><title>drage</title><g id="logo_type" data-name="logo type"><polygon class="cls-1" points="145.03 12.48 145.88 18 103.34 59.82 97.18 59.82 145.03 12.48"/><path class="cls-2" d="M97.18,59.82l47.94-47.4c-12.93,3.8-27.66,11-34.25,18.25C102.45,39.92,98.32,47.15,97.18,59.82Z"/><polygon id="SVGID" class="cls-1" points="57.64 43.4 69.7 38.58 69.78 51.58 57.64 43.4"/><polygon id="SVGID-2" data-name="SVGID" class="cls-1" points="42.3 25.08 54.77 19.29 55.84 32.53 42.3 25.08"/><polygon id="SVGID-3" data-name="SVGID" class="cls-1" points="21.64 30.86 26.56 18.45 37.45 26.49 21.64 30.86"/><path class="cls-2" d="M81.66,59.74,76.92,48c-9.25,2.79-15.67-1.24-17.69-8.69-3.8-13.94-16.48-17-26.36-12.93-4.46,1.83-11.66,5.83-19.52-3.29C8.93,18,7.89,14.24,6.37,9.42L0,17.41a49.5,49.5,0,0,0,3.45,7.35C15,43.13,25.13,39.08,34.76,34.65c6.11-2.79,13.94-1,17.49,10.14,3,9.63,11.08,18,21.8,16.6A36.94,36.94,0,0,0,81.66,59.74Z"/><path class="cls-2" d="M4.48,22.33C13.48,37,21.14,38.3,32.17,33c10.39-5,18.07,1.65,20.74,9,2.91,8.11,7.76,14.65,18.3,13.81a23,23,0,0,0,7.17-1.65l2.46,4.57L76.6,48.26C67.35,51.05,60.94,47,58.91,39.57c-3.8-13.94-16.48-17-26.36-12.93C28.08,28.47,20.89,32.47,13,23.35c-4.41-5.14-5.45-8.87-7-13.69L1.39,15.51A39.89,39.89,0,0,0,4.48,22.33Z"/><path class="cls-1" d="M71.51,55.56c-10.55.84-15.39-5.71-18.3-13.82-2.66-7.35-10.34-14-20.74-9-11,5.32-18.68,4-27.68-10.65A40.1,40.1,0,0,1,1.7,15.27L0,17.41a49.36,49.36,0,0,0,3.45,7.35C15,43.14,25.12,39.08,34.75,34.65c6.11-2.79,13.94-1,17.49,10.14,3,9.63,11.08,18,21.8,16.6a37,37,0,0,0,7.6-1.65l-.51-1.26-2.46-4.57A23.07,23.07,0,0,1,71.51,55.56Z"/><path class="cls-1" d="M78.36,54.36c-1.29-3.19-2-6.1-1.44-6.33s2.13,2.33,3.42,5.52,1.88,6,1.34,6.19S79.65,57.53,78.36,54.36Z"/><path class="cls-3" d="M6.67,16.89a30.64,30.64,0,0,0,8.61,11.17.54.54,0,1,0,.67-.86A29.56,29.56,0,0,1,7.66,16.42a.55.55,0,0,0-1,.47"/><polygon class="cls-1" points="13.88 0 12.46 11.36 3.31 4.44 13.88 0"/><path class="cls-3" d="M40.82,26.85h.68a15,15,0,0,1,13.31,7.95.55.55,0,0,0,1-.53,16.07,16.07,0,0,0-14.26-8.51h-.73a.55.55,0,0,0,0,1.09"/><polygon class="cls-1" points="76.12 15.64 78.93 33.1 93.89 17.01 76.12 15.64"/><polygon class="cls-1" points="106.71 0.53 93.89 16.91 119.74 16.91 106.71 0.53"/><rect class="cls-1" x="75.64" y="93.54" width="61.98" height="6.46"/><path class="cls-1" d="M106.62,96.77"/><path class="cls-2" d="M137.71,44.85A30.9,30.9,0,1,1,107,13.73,30.94,30.94,0,0,1,137.71,44.85Z"/><path class="cls-1" d="M106.9,68.15c-14.18,0-26.26-8.1-30.72-19.39a30.89,30.89,0,0,0,61.12.79C132.58,60.43,120.75,68.15,106.9,68.15Z"/><path class="cls-3" d="M95,20.35a26.56,26.56,0,0,0-13,13.9,1.8,1.8,0,1,0,3.33,1.36,23,23,0,0,1,11.26-12A1.8,1.8,0,1,0,95,20.35Z"/><path class="cls-4" d="M198.38,55.19"/><polygon class="cls-1" points="199.93 43.87 172.32 43.87 160.38 58.19 192.19 58.19 194.45 60.6 199.93 43.87"/><polygon class="cls-1" points="147.22 44.65 153.69 37.17 157.34 40.39 151.61 20.67 189.02 44.65 147.22 44.65"/><polygon class="cls-1" points="134.26 44.94 140.72 37.46 147.19 44.94 134.26 44.94"/><path class="cls-2" d="M134.09,44.6h35.54V54l-35.51,0c-.76,0-1.45-2.13-1.45-4.69S133.32,44.6,134.09,44.6Z"/><polygon class="cls-1" points="190.72 44.52 163.11 44.52 155.28 53.92 183.43 52.91 186.01 57.09 190.72 44.52"/><path class="cls-3" d="M157.56,48.49l-24.09,0a.52.52,0,0,0,0,1l24.1,0a.52.52,0,1,0,0-1"/><polygon class="cls-2" points="194.14 43.87 166.53 43.87 154.59 58.19 186.41 58.19 188.66 60.6 194.14 43.87"/><path class="cls-1" d="M177,46.88a.93.93,0,1,1,1.15.64A.93.93,0,0,1,177,46.88Z"/><path class="cls-1" d="M177.93,46.63"/><polygon class="cls-1" points="141.69 1.13 142.54 6.65 100 48.47 93.83 48.47 141.69 1.13"/><path class="cls-2" d="M93.83,48.47l47.94-47.4c-12.93,3.8-27.66,11-34.25,18.25C99.1,28.57,95,35.8,93.83,48.47Z"/><path class="cls-1" d="M123.32,30.93a46.17,46.17,0,0,1,9.35-3.27,31.16,31.16,0,0,0-7.25-7.85L100.91,47.33C108.52,39.6,114.57,35,123.32,30.93Z"/></g></svg>